<?xml version="1.0" standalone="no"?>
<!DOCTYPE svg PUBLIC "-//W3C//DTD SVG 20010904//EN"
 "http://www.w3.org/TR/2001/REC-SVG-20010904/DTD/svg10.dtd">
<svg version="1.0" xmlns="http://www.w3.org/2000/svg"
 width="200.000000pt" height="200.000000pt" viewBox="0 0 200.000000 200.000000"
 preserveAspectRatio="xMidYMid meet">
<metadata>
Created by potrace 1.11, written by Peter Selinger 2001-2013
</metadata>
<g transform="translate(0.000000,200.000000) scale(0.100000,-0.100000)"
fill="#000000" stroke="none">
<path d="M845 1845 c-194 -49 -355 -178 -443 -355 -53 -107 -64 -143 -67 -227
-1 -40 -5 -76 -9 -80 -10 -10 -7 -51 4 -58 6 -3 10 -21 10 -39 0 -43 34 -146
73 -221 34 -64 203 -245 230 -245 9 0 17 -3 19 -7 3 -8 77 -46 113 -58 148
-51 323 -47 465 11 198 80 357 265 405 472 21 89 21 244 0 317 -20 70 -75 185
-113 235 -94 125 -250 226 -402 260 -61 13 -224 11 -285 -5z"/>
<path d="M287 393 c-4 -3 -7 -62 -7 -130 l0 -123 25 0 25 0 1 108 c0 59 3 101
6 95 2 -7 16 -13 29 -13 19 0 24 5 24 26 0 23 -3 26 -30 22 -20 -3 -30 0 -30
9 0 13 -31 18 -43 6z"/>
<path d="M1068 392 c-25 -3 -26 -7 -30 -62 -1 -32 -1 -88 0 -124 l4 -66 38 0
c40 0 66 20 56 45 -3 8 -15 15 -26 15 -16 0 -20 7 -20 30 0 23 5 30 19 30 20
0 31 17 24 38 -3 6 -13 12 -24 12 -10 0 -19 7 -19 15 0 8 6 15 14 15 11 0 26
20 26 35 0 10 -38 20 -62 17z"/>
<path d="M30 287 c0 -122 8 -140 69 -144 l41 -3 0 109 c0 60 3 116 6 125 5 13
-1 16 -25 16 -21 0 -31 -5 -31 -15 0 -8 -4 -15 -10 -15 -5 0 -7 7 -4 15 5 11
-1 15 -20 15 l-26 0 0 -103z m57 -34 c-2 -21 -4 -6 -4 32 0 39 2 55 4 38 2
-18 2 -50 0 -70z"/>
<path d="M580 354 c0 -21 4 -25 23 -22 14 2 23 11 25 26 3 18 -1 22 -22 22
-21 0 -26 -5 -26 -26z"/>
<path d="M910 346 c0 -27 -5 -35 -24 -40 -14 -3 -28 -17 -34 -33 l-10 -28 -10
25 c-18 45 -36 53 -66 29 -14 -11 -26 -30 -26 -42 0 -20 -2 -19 -15 7 -8 15
-15 43 -15 61 0 29 -2 32 -25 27 -22 -4 -25 -10 -25 -43 0 -22 -4 -39 -10 -39
-5 0 -10 -9 -10 -19 0 -11 5 -23 10 -26 6 -3 10 -24 10 -46 0 -35 3 -39 25
-39 22 0 25 4 25 39 0 51 17 62 26 17 8 -44 25 -58 61 -54 20 2 29 9 31 26 3
17 -1 22 -19 22 -27 0 -16 14 19 25 18 5 22 2 22 -15 0 -42 17 -57 65 -58 l45
-1 0 119 0 120 -25 0 c-22 0 -25 -4 -25 -34z m-110 -96 c0 -5 -4 -10 -10 -10
-5 0 -10 5 -10 10 0 6 5 10 10 10 6 0 10 -4 10 -10z m110 -26 c0 -14 -4 -23
-10 -19 -5 3 -10 15 -10 26 0 10 5 19 10 19 6 0 10 -12 10 -26z"/>
<path d="M1207 373 c-4 -3 -7 -19 -7 -34 0 -18 -6 -30 -18 -34 -21 -6 -42 -45
-42 -76 0 -11 6 -35 14 -53 13 -30 18 -33 57 -34 l44 -1 2 119 c1 118 1 120
-21 120 -13 0 -26 -3 -29 -7z m3 -154 c0 -11 -4 -17 -10 -14 -5 3 -10 15 -10
26 0 11 5 17 10 14 6 -3 10 -15 10 -26z"/>
<path d="M1690 354 c0 -21 4 -25 23 -22 14 2 23 11 25 26 3 18 -1 22 -22 22
-21 0 -26 -5 -26 -26z"/>
<path d="M1628 353 c-13 -3 -18 -14 -18 -38 0 -19 -4 -45 -9 -59 -7 -18 -6
-28 5 -36 7 -7 14 -28 14 -46 0 -27 4 -34 20 -34 17 0 20 7 20 45 0 25 5 45
10 45 6 0 10 11 10 25 0 14 -4 25 -10 25 -5 0 -10 18 -10 40 0 22 -3 39 -7 39
-5 -1 -16 -3 -25 -6z"/>
<path d="M1878 309 c-12 -6 -18 -23 -19 -47 l-1 -37 -7 31 c-11 44 -19 54 -45
54 -32 0 -48 -22 -53 -73 -8 -88 54 -128 89 -57 l18 35 0 -37 c0 -34 3 -38 25
-38 23 0 25 3 26 53 0 38 3 47 9 32 5 -11 9 -35 9 -52 1 -26 5 -33 21 -33 18
0 20 7 20 58 0 64 -18 108 -43 106 -9 -1 -17 2 -17 7 0 12 -11 11 -32 -2z
m-68 -90 c0 -11 -4 -17 -10 -14 -5 3 -10 13 -10 21 0 8 5 14 10 14 6 0 10 -9
10 -21z"/>
<path d="M160 224 c0 -77 2 -84 20 -84 17 0 20 7 20 50 0 28 5 50 10 50 6 0
10 -23 10 -51 0 -47 2 -50 23 -47 21 3 22 7 19 67 -4 86 -12 99 -62 99 l-40 1
0 -85z"/>
<path d="M340 225 c0 -84 0 -85 25 -85 25 0 25 1 25 85 0 84 0 85 -25 85 -25
0 -25 -1 -25 -85z"/>
<path d="M410 225 c0 -78 2 -85 20 -85 18 0 20 7 20 56 0 34 4 53 10 49 6 -3
10 -28 10 -56 0 -42 3 -49 20 -49 16 0 20 8 23 58 l3 57 2 -59 c2 -48 5 -57
18 -52 9 3 20 6 26 6 11 0 5 100 -7 133 -9 21 -34 30 -50 17 -6 -5 -15 -7 -18
-3 -4 3 -23 8 -42 10 l-35 4 0 -86z"/>
<path d="M580 225 c0 -84 0 -85 25 -85 25 0 25 1 25 85 0 84 0 85 -25 85 -25
0 -25 -1 -25 -85z"/>
<path d="M1270 238 c0 -40 4 -78 8 -85 4 -7 25 -11 47 -10 l40 2 3 83 c3 77 2
82 -18 82 -17 0 -20 -6 -20 -50 0 -27 -4 -50 -10 -50 -5 0 -10 23 -10 50 0 43
-3 50 -20 50 -18 0 -20 -7 -20 -72z"/>
<path d="M1406 288 c-40 -61 -22 -148 29 -148 16 0 25 6 25 15 0 19 16 19 24
0 5 -15 47 -19 90 -8 16 5 18 12 12 60 -8 66 -30 103 -62 103 -19 0 -24 -5
-24 -25 0 -14 6 -25 13 -25 6 0 2 -8 -9 -18 -12 -9 -25 -27 -29 -39 -12 -41
-45 -22 -45 26 0 9 9 25 21 34 24 21 21 41 -9 45 -13 2 -26 -5 -36 -20z m131
-90 c-3 -8 -6 -5 -6 6 -1 11 2 17 5 13 3 -3 4 -12 1 -19z"/>
<path d="M1690 225 c0 -84 0 -85 25 -85 25 0 25 1 25 85 0 84 0 85 -25 85 -25
0 -25 -1 -25 -85z"/>
</g>
</svg>
